<svg width="132" height="48" viewBox="0 0 132 48" fill="none" xmlns="http://www.w3.org/2000/svg">
<path d="M9.56818 47H0.568182L16.9545 0.454544H27.3636L43.7727 47H34.7727L22.3409 10H21.9773L9.56818 47ZM9.86364 28.75H34.4091V35.5227H9.86364V28.75ZM53.287 0.454544V47H45.0598V0.454544H53.287ZM72.7218 47.6818C69.2218 47.6818 66.1991 46.9545 63.6536 45.5C61.1233 44.0303 59.1764 41.9545 57.8127 39.2727C56.4491 36.5758 55.7673 33.4015 55.7673 29.75C55.7673 26.1591 56.4491 23.0076 57.8127 20.2955C59.1915 17.5682 61.1158 15.447 63.5855 13.9318C66.0552 12.4015 68.9567 11.6364 72.29 11.6364C74.4415 11.6364 76.4718 11.9848 78.3809 12.6818C80.3052 13.3636 82.0021 14.4242 83.4718 15.8636C84.9567 17.303 86.1233 19.1364 86.9718 21.3636C87.8203 23.5758 88.2445 26.2121 88.2445 29.2727V31.7955H59.6309V26.25H80.3582C80.343 24.6742 80.0021 23.2727 79.3355 22.0455C78.6688 20.803 77.737 19.8258 76.54 19.1136C75.3582 18.4015 73.9794 18.0455 72.4036 18.0455C70.7218 18.0455 69.2445 18.4545 67.9718 19.2727C66.6991 20.0758 65.7067 21.1364 64.9945 22.4545C64.2976 23.7576 63.9415 25.1894 63.9264 26.75V31.5909C63.9264 33.6212 64.2976 35.3636 65.04 36.8182C65.7824 38.2576 66.8203 39.3636 68.1536 40.1364C69.487 40.8939 71.0476 41.2727 72.8355 41.2727C74.0324 41.2727 75.1158 41.1061 76.0855 40.7727C77.0552 40.4242 77.8961 39.9167 78.6082 39.25C79.3203 38.5833 79.8582 37.7576 80.2218 36.7727L87.9036 37.6364C87.4188 39.6667 86.4945 41.4394 85.1309 42.9545C83.7824 44.4545 82.0552 45.6212 79.9491 46.4545C77.843 47.2727 75.4339 47.6818 72.7218 47.6818ZM96.702 12.0909L103.747 24.9773L110.907 12.0909H119.611L109.088 29.5455L119.793 47H111.134L103.747 34.4318L96.4293 47H87.702L98.3384 29.5455L87.9748 12.0909H96.702ZM126.563 47.5C125.184 47.5 124.002 47.0152 123.018 46.0455C122.033 45.0758 121.548 43.8939 121.563 42.5C121.548 41.1364 122.033 39.9697 123.018 39C124.002 38.0303 125.184 37.5455 126.563 37.5455C127.896 37.5455 129.055 38.0303 130.04 39C131.04 39.9697 131.548 41.1364 131.563 42.5C131.548 43.4242 131.305 44.2652 130.836 45.0227C130.381 45.7803 129.775 46.3864 129.018 46.8409C128.275 47.2803 127.457 47.5 126.563 47.5Z" fill="black"/>
</svg>
